<svg width="20" height="20" viewBox="0 0 20 20" fill="none" xmlns="http://www.w3.org/2000/svg">
  <rect width="20" height="20" fill="#1E1E1E" />
  <rect width="1336" height="860" transform="translate(-111 -397)" fill="#E3EAEF" />
  <rect x="-102.5" y="-340.5" width="1319" height="795" rx="3.5" fill="white" />
  <rect x="-102.5" y="-340.5" width="1319" height="795" rx="3.5" stroke="#D8DFE6" />
  <g clip-path="url(#clip0_0_1)">
    <rect x="-87" y="-281" width="479" height="720" rx="2" fill="white" />
    <mask id="path-4-inside-1_0_1" fill="white">
      <path d="M-87 -236H392V439H-87V-236Z" />
    </mask>
    <path d="M-87 -236H392V439H-87V-236Z" fill="white" />
    <path d="M391 -236V439H393V-236H391ZM-86 439V-236H-88V439H-86Z" fill="#D0D7DE" mask="url(#path-4-inside-1_0_1)" />
    <rect width="471" height="28" transform="translate(-83 -228)" fill="white" />
    <mask id="path-6-inside-2_0_1" fill="white">
      <path
        d="M19.6379 6.89491L19.6306 6.85808C19.6257 6.83353 19.6232 6.81143 19.6158 6.78688C19.6109 6.77215 19.606 6.75987 19.6036 6.74514C19.5962 6.72549 19.5913 6.7034 19.5815 6.68375C19.5766 6.66902 19.5692 6.65674 19.5618 6.64201C19.552 6.62237 19.5422 6.60518 19.5324 6.58554C19.525 6.57326 19.5176 6.55853 19.5078 6.54625C19.4882 6.51679 19.4661 6.48732 19.444 6.45786C19.4317 6.44313 19.417 6.42594 19.4022 6.41121C19.3924 6.39893 19.3801 6.38911 19.3679 6.37929C19.3531 6.36456 19.3359 6.35228 19.3212 6.34C19.3089 6.33018 19.2967 6.32036 19.2819 6.31054C19.277 6.30808 19.2721 6.30317 19.2672 6.30072L10.2929 0.326833C10.1544 0.234355 9.99162 0.184998 9.82511 0.184998C9.6586 0.184998 9.49583 0.234355 9.35737 0.326833L0.378125 6.30563C0.373214 6.30808 0.368303 6.31299 0.363393 6.31545C0.351116 6.32527 0.338839 6.33509 0.324107 6.34491C0.30692 6.35719 0.292187 6.37192 0.277455 6.3842C0.265178 6.39402 0.255357 6.4063 0.24308 6.41612C0.228348 6.43085 0.213616 6.44558 0.201339 6.46277C0.176786 6.48978 0.157143 6.51924 0.1375 6.55116C0.130134 6.56344 0.120312 6.57572 0.112946 6.59045C0.103125 6.60764 0.0933036 6.62728 0.0834822 6.64692C0.0761161 6.6592 0.0712053 6.67393 0.0638392 6.68866C0.0564732 6.70831 0.0491071 6.7304 0.041741 6.75005C0.0368303 6.76478 0.0319196 6.77706 0.0294642 6.79179C0.0245535 6.81389 0.0196428 6.83844 0.0147321 6.86299L0.00736596 6.89982C0.00245524 6.93665 0 6.97349 0 7.01032V12.9891C0 13.0259 0.00245524 13.0628 0.00736596 13.0996L0.0147321 13.1364L0.0294642 13.2076C0.0343749 13.2224 0.0368303 13.2346 0.041741 13.2494C0.0491071 13.2715 0.0564732 13.2911 0.0638392 13.3108C0.06875 13.3255 0.0761161 13.3378 0.0834822 13.3525C0.0933036 13.3721 0.10067 13.3893 0.112946 13.409C0.120312 13.4213 0.127679 13.436 0.1375 13.4483C0.149777 13.4655 0.159598 13.4826 0.17433 13.4998L0.203795 13.5367C0.216071 13.5514 0.230804 13.5686 0.245536 13.5833C0.255357 13.5956 0.267634 13.6054 0.279911 13.6152C0.294643 13.63 0.31183 13.6422 0.326562 13.6545C0.338839 13.6643 0.351116 13.6742 0.365848 13.684C0.370759 13.6864 0.37567 13.6913 0.38058 13.6938L9.35737 19.6726C9.49487 19.7659 9.65937 19.815 9.82634 19.815C9.98839 19.815 10.1529 19.7684 10.2953 19.6726L19.2721 13.6938C19.277 13.6913 19.2819 13.6864 19.2868 13.684C19.2991 13.6742 19.3114 13.6643 19.3261 13.6545C19.3433 13.6422 19.358 13.6275 19.3728 13.6152C19.385 13.6054 19.3949 13.5931 19.4071 13.5833C19.4219 13.5686 19.4366 13.5538 19.4489 13.5367L19.4783 13.4998L19.5152 13.4483C19.5225 13.436 19.5324 13.4237 19.5397 13.409C19.5496 13.3893 19.5594 13.3721 19.5692 13.3525C19.5766 13.3402 19.5815 13.3255 19.5888 13.3108C19.5962 13.2911 19.6036 13.269 19.6109 13.2494C19.6158 13.2371 19.6208 13.2224 19.6232 13.2076C19.6306 13.1855 19.633 13.161 19.6379 13.1364L19.6453 13.0996C19.6502 13.0628 19.6527 13.0259 19.6527 12.9891V7.0054C19.6453 6.96857 19.6429 6.93174 19.6379 6.89491ZM10.6685 2.60295L17.2833 7.00786L14.3295 8.98197L10.671 6.53643V2.60295H10.6685ZM8.97924 2.60295V6.53643L5.32076 8.98197L2.36696 7.00786L8.97924 2.60295ZM1.68929 8.5842L3.80089 9.99603L1.68929 11.4079V8.5842ZM8.97924 17.3867L2.36696 12.9817L5.32076 11.0076L8.97924 13.4532V17.3867ZM9.82388 11.9898L6.83817 9.99603L9.82388 7.99982L12.8096 9.99358L9.82388 11.9898ZM10.6685 17.3867V13.4532L14.327 11.0076L17.2808 12.9817L10.6685 17.3867ZM17.9585 11.4054L15.8469 9.99358L17.9585 8.58174V11.4054Z" />
    </mask>
    <path
      d="M19.6379 6.89491L19.6306 6.85808C19.6257 6.83353 19.6232 6.81143 19.6158 6.78688C19.6109 6.77215 19.606 6.75987 19.6036 6.74514C19.5962 6.72549 19.5913 6.7034 19.5815 6.68375C19.5766 6.66902 19.5692 6.65674 19.5618 6.64201C19.552 6.62237 19.5422 6.60518 19.5324 6.58554C19.525 6.57326 19.5176 6.55853 19.5078 6.54625C19.4882 6.51679 19.4661 6.48732 19.444 6.45786C19.4317 6.44313 19.417 6.42594 19.4022 6.41121C19.3924 6.39893 19.3801 6.38911 19.3679 6.37929C19.3531 6.36456 19.3359 6.35228 19.3212 6.34C19.3089 6.33018 19.2967 6.32036 19.2819 6.31054C19.277 6.30808 19.2721 6.30317 19.2672 6.30072L10.2929 0.326833C10.1544 0.234355 9.99162 0.184998 9.82511 0.184998C9.6586 0.184998 9.49583 0.234355 9.35737 0.326833L0.378125 6.30563C0.373214 6.30808 0.368303 6.31299 0.363393 6.31545C0.351116 6.32527 0.338839 6.33509 0.324107 6.34491C0.30692 6.35719 0.292187 6.37192 0.277455 6.3842C0.265178 6.39402 0.255357 6.4063 0.24308 6.41612C0.228348 6.43085 0.213616 6.44558 0.201339 6.46277C0.176786 6.48978 0.157143 6.51924 0.1375 6.55116C0.130134 6.56344 0.120312 6.57572 0.112946 6.59045C0.103125 6.60764 0.0933036 6.62728 0.0834822 6.64692C0.0761161 6.6592 0.0712053 6.67393 0.0638392 6.68866C0.0564732 6.70831 0.0491071 6.7304 0.041741 6.75005C0.0368303 6.76478 0.0319196 6.77706 0.0294642 6.79179C0.0245535 6.81389 0.0196428 6.83844 0.0147321 6.86299L0.00736596 6.89982C0.00245524 6.93665 0 6.97349 0 7.01032V12.9891C0 13.0259 0.00245524 13.0628 0.00736596 13.0996L0.0147321 13.1364L0.0294642 13.2076C0.0343749 13.2224 0.0368303 13.2346 0.041741 13.2494C0.0491071 13.2715 0.0564732 13.2911 0.0638392 13.3108C0.06875 13.3255 0.0761161 13.3378 0.0834822 13.3525C0.0933036 13.3721 0.10067 13.3893 0.112946 13.409C0.120312 13.4213 0.127679 13.436 0.1375 13.4483C0.149777 13.4655 0.159598 13.4826 0.17433 13.4998L0.203795 13.5367C0.216071 13.5514 0.230804 13.5686 0.245536 13.5833C0.255357 13.5956 0.267634 13.6054 0.279911 13.6152C0.294643 13.63 0.31183 13.6422 0.326562 13.6545C0.338839 13.6643 0.351116 13.6742 0.365848 13.684C0.370759 13.6864 0.37567 13.6913 0.38058 13.6938L9.35737 19.6726C9.49487 19.7659 9.65937 19.815 9.82634 19.815C9.98839 19.815 10.1529 19.7684 10.2953 19.6726L19.2721 13.6938C19.277 13.6913 19.2819 13.6864 19.2868 13.684C19.2991 13.6742 19.3114 13.6643 19.3261 13.6545C19.3433 13.6422 19.358 13.6275 19.3728 13.6152C19.385 13.6054 19.3949 13.5931 19.4071 13.5833C19.4219 13.5686 19.4366 13.5538 19.4489 13.5367L19.4783 13.4998L19.5152 13.4483C19.5225 13.436 19.5324 13.4237 19.5397 13.409C19.5496 13.3893 19.5594 13.3721 19.5692 13.3525C19.5766 13.3402 19.5815 13.3255 19.5888 13.3108C19.5962 13.2911 19.6036 13.269 19.6109 13.2494C19.6158 13.2371 19.6208 13.2224 19.6232 13.2076C19.6306 13.1855 19.633 13.161 19.6379 13.1364L19.6453 13.0996C19.6502 13.0628 19.6527 13.0259 19.6527 12.9891V7.0054C19.6453 6.96857 19.6429 6.93174 19.6379 6.89491ZM10.6685 2.60295L17.2833 7.00786L14.3295 8.98197L10.671 6.53643V2.60295H10.6685ZM8.97924 2.60295V6.53643L5.32076 8.98197L2.36696 7.00786L8.97924 2.60295ZM1.68929 8.5842L3.80089 9.99603L1.68929 11.4079V8.5842ZM8.97924 17.3867L2.36696 12.9817L5.32076 11.0076L8.97924 13.4532V17.3867ZM9.82388 11.9898L6.83817 9.99603L9.82388 7.99982L12.8096 9.99358L9.82388 11.9898ZM10.6685 17.3867V13.4532L14.327 11.0076L17.2808 12.9817L10.6685 17.3867ZM17.9585 11.4054L15.8469 9.99358L17.9585 8.58174V11.4054Z"
      fill="#2188FF" stroke="#2188FF" stroke-width="0.00223214" mask="url(#path-6-inside-2_0_1)" />
  </g>
  <rect x="-86.5" y="-280.5" width="478" height="719" rx="1.5" stroke="#D8DFE6" />
  <defs>
    <clipPath id="clip0_0_1">
      <rect x="-87" y="-281" width="479" height="720" rx="2" fill="white" />
    </clipPath>
  </defs>
</svg>